<mxfile host="app.diagrams.net" modified="2023-12-27T15:12:33.223Z" agent="Mozilla/5.0 (Macintosh; Intel Mac OS X 10_15_7) AppleWebKit/537.36 (KHTML, like Gecko) Chrome/120.0.0.0 Safari/537.36" etag="JxwJsjBok1xD9S3pI3ik" version="22.1.13" type="device">
  <diagram name="Page-1" id="WdqfSuQn8doPGqM7p26z">
    <mxGraphModel dx="1022" dy="566" grid="1" gridSize="10" guides="1" tooltips="1" connect="1" arrows="1" fold="1" page="1" pageScale="1" pageWidth="850" pageHeight="1100" math="0" shadow="0">
      <root>
        <mxCell id="0" />
        <mxCell id="1" parent="0" />
        <mxCell id="atC_8x5VUImqEYT9QwSi-1" value="System Input Space" style="whiteSpace=wrap;html=1;aspect=fixed;" vertex="1" parent="1">
          <mxGeometry x="240" y="240" width="120" height="120" as="geometry" />
        </mxCell>
        <mxCell id="atC_8x5VUImqEYT9QwSi-3" value="Analysis and Conversion into internal symbols&lt;br&gt;&lt;b&gt;(HIdden Layer(s))&lt;/b&gt;" style="shape=cube;whiteSpace=wrap;html=1;boundedLbl=1;backgroundOutline=1;darkOpacity=0.05;darkOpacity2=0.1;" vertex="1" parent="1">
          <mxGeometry x="400" y="240" width="160" height="120" as="geometry" />
        </mxCell>
        <mxCell id="atC_8x5VUImqEYT9QwSi-5" value="Finite Reaction Space" style="whiteSpace=wrap;html=1;aspect=fixed;" vertex="1" parent="1">
          <mxGeometry x="610" y="260" width="80" height="80" as="geometry" />
        </mxCell>
        <mxCell id="atC_8x5VUImqEYT9QwSi-6" value="" style="endArrow=classic;html=1;rounded=0;exitX=1;exitY=0.5;exitDx=0;exitDy=0;entryX=-0.012;entryY=0.492;entryDx=0;entryDy=0;entryPerimeter=0;" edge="1" parent="1" source="atC_8x5VUImqEYT9QwSi-1" target="atC_8x5VUImqEYT9QwSi-3">
          <mxGeometry width="50" height="50" relative="1" as="geometry">
            <mxPoint x="400" y="320" as="sourcePoint" />
            <mxPoint x="450" y="270" as="targetPoint" />
          </mxGeometry>
        </mxCell>
        <mxCell id="atC_8x5VUImqEYT9QwSi-7" value="" style="endArrow=classic;html=1;rounded=0;entryX=0;entryY=0.5;entryDx=0;entryDy=0;exitX=0.994;exitY=0.5;exitDx=0;exitDy=0;exitPerimeter=0;" edge="1" parent="1" source="atC_8x5VUImqEYT9QwSi-3" target="atC_8x5VUImqEYT9QwSi-5">
          <mxGeometry width="50" height="50" relative="1" as="geometry">
            <mxPoint x="400" y="320" as="sourcePoint" />
            <mxPoint x="450" y="270" as="targetPoint" />
          </mxGeometry>
        </mxCell>
        <mxCell id="atC_8x5VUImqEYT9QwSi-9" style="edgeStyle=orthogonalEdgeStyle;rounded=0;orthogonalLoop=1;jettySize=auto;html=1;exitX=0.5;exitY=1;exitDx=0;exitDy=0;entryX=0;entryY=0.5;entryDx=0;entryDy=0;" edge="1" parent="1" source="atC_8x5VUImqEYT9QwSi-8" target="atC_8x5VUImqEYT9QwSi-1">
          <mxGeometry relative="1" as="geometry" />
        </mxCell>
        <mxCell id="atC_8x5VUImqEYT9QwSi-8" value="Object As It Is" style="ellipse;whiteSpace=wrap;html=1;aspect=fixed;" vertex="1" parent="1">
          <mxGeometry x="120" y="120" width="80" height="80" as="geometry" />
        </mxCell>
        <mxCell id="atC_8x5VUImqEYT9QwSi-10" value="Store Of Objects As They Were Perceived&lt;br&gt;&lt;br&gt;Symbolic Relation" style="shape=cylinder3;whiteSpace=wrap;html=1;boundedLbl=1;backgroundOutline=1;size=15;" vertex="1" parent="1">
          <mxGeometry x="400" y="40" width="160" height="110" as="geometry" />
        </mxCell>
        <mxCell id="atC_8x5VUImqEYT9QwSi-11" value="" style="endArrow=classic;html=1;rounded=0;exitX=0;exitY=0;exitDx=0;exitDy=0;exitPerimeter=0;entryX=0.5;entryY=1;entryDx=0;entryDy=0;entryPerimeter=0;" edge="1" parent="1" source="atC_8x5VUImqEYT9QwSi-3" target="atC_8x5VUImqEYT9QwSi-10">
          <mxGeometry width="50" height="50" relative="1" as="geometry">
            <mxPoint x="400" y="230" as="sourcePoint" />
            <mxPoint x="450" y="180" as="targetPoint" />
          </mxGeometry>
        </mxCell>
        <mxCell id="atC_8x5VUImqEYT9QwSi-12" value="" style="endArrow=classic;html=1;rounded=0;entryX=0;entryY=0;entryDx=140;entryDy=0;entryPerimeter=0;exitX=0.5;exitY=1;exitDx=0;exitDy=0;exitPerimeter=0;" edge="1" parent="1" source="atC_8x5VUImqEYT9QwSi-10" target="atC_8x5VUImqEYT9QwSi-3">
          <mxGeometry width="50" height="50" relative="1" as="geometry">
            <mxPoint x="400" y="230" as="sourcePoint" />
            <mxPoint x="450" y="180" as="targetPoint" />
          </mxGeometry>
        </mxCell>
        <mxCell id="atC_8x5VUImqEYT9QwSi-14" value="" style="endArrow=none;dashed=1;html=1;dashPattern=1 3;strokeWidth=2;rounded=0;entryX=1;entryY=0.5;entryDx=0;entryDy=0;entryPerimeter=0;" edge="1" parent="1" target="atC_8x5VUImqEYT9QwSi-10">
          <mxGeometry width="50" height="50" relative="1" as="geometry">
            <mxPoint x="630" y="95" as="sourcePoint" />
            <mxPoint x="450" y="180" as="targetPoint" />
          </mxGeometry>
        </mxCell>
        <mxCell id="atC_8x5VUImqEYT9QwSi-15" value="Object as it appeared &lt;br&gt;to the perceiver.&lt;br&gt;+&lt;br&gt;Weight or &quot;influence&quot; of the object on the perceivers state" style="ellipse;whiteSpace=wrap;html=1;aspect=fixed;" vertex="1" parent="1">
          <mxGeometry x="630" y="17" width="155" height="155" as="geometry" />
        </mxCell>
      </root>
    </mxGraphModel>
  </diagram>
</mxfile>
